<mxfile host="app.diagrams.net" agent="Mozilla/5.0 (Macintosh; Intel Mac OS X 10.15; rv:141.0) Gecko/20100101 Firefox/141.0" version="28.0.7">
  <diagram name="Page-1" id="1Xcw7CiNeDJ6PNrwqVDK">
    <mxGraphModel dx="1018" dy="692" grid="1" gridSize="10" guides="1" tooltips="1" connect="1" arrows="1" fold="1" page="1" pageScale="1" pageWidth="827" pageHeight="1169" math="0" shadow="0">
      <root>
        <mxCell id="0" />
        <mxCell id="1" parent="0" />
        <mxCell id="MUnnj8GXMwNh7peaOV70-3" value="AWS Cloud" style="points=[[0,0],[0.25,0],[0.5,0],[0.75,0],[1,0],[1,0.25],[1,0.5],[1,0.75],[1,1],[0.75,1],[0.5,1],[0.25,1],[0,1],[0,0.75],[0,0.5],[0,0.25]];outlineConnect=0;gradientColor=none;html=1;whiteSpace=wrap;fontSize=12;fontStyle=0;container=1;pointerEvents=0;collapsible=0;recursiveResize=0;shape=mxgraph.aws4.group;grIcon=mxgraph.aws4.group_aws_cloud_alt;strokeColor=#232F3E;fillColor=none;verticalAlign=top;align=left;spacingLeft=30;fontColor=#232F3E;dashed=0;" vertex="1" parent="1">
          <mxGeometry x="40" y="120" width="620" height="540" as="geometry" />
        </mxCell>
        <mxCell id="MUnnj8GXMwNh7peaOV70-4" value="Region A" style="points=[[0,0],[0.25,0],[0.5,0],[0.75,0],[1,0],[1,0.25],[1,0.5],[1,0.75],[1,1],[0.75,1],[0.5,1],[0.25,1],[0,1],[0,0.75],[0,0.5],[0,0.25]];outlineConnect=0;gradientColor=none;html=1;whiteSpace=wrap;fontSize=12;fontStyle=0;container=1;pointerEvents=0;collapsible=0;recursiveResize=0;shape=mxgraph.aws4.group;grIcon=mxgraph.aws4.group_region;strokeColor=#00A4A6;fillColor=none;verticalAlign=top;align=left;spacingLeft=30;fontColor=#147EBA;dashed=1;" vertex="1" parent="MUnnj8GXMwNh7peaOV70-3">
          <mxGeometry x="40" y="120" width="220" height="400" as="geometry" />
        </mxCell>
        <mxCell id="MUnnj8GXMwNh7peaOV70-7" value="ECS Cluster" style="points=[[0,0],[0.25,0],[0.5,0],[0.75,0],[1,0],[1,0.25],[1,0.5],[1,0.75],[1,1],[0.75,1],[0.5,1],[0.25,1],[0,1],[0,0.75],[0,0.5],[0,0.25]];outlineConnect=0;gradientColor=none;html=1;whiteSpace=wrap;fontSize=12;fontStyle=0;container=1;pointerEvents=0;collapsible=0;recursiveResize=0;shape=mxgraph.aws4.group;grIcon=mxgraph.aws4.group_ec2_instance_contents;strokeColor=#D86613;fillColor=none;verticalAlign=top;align=left;spacingLeft=30;fontColor=#D86613;dashed=0;" vertex="1" parent="MUnnj8GXMwNh7peaOV70-4">
          <mxGeometry x="20" y="130" width="180" height="100" as="geometry" />
        </mxCell>
        <mxCell id="MUnnj8GXMwNh7peaOV70-12" value="Services" style="sketch=0;outlineConnect=0;fontColor=#232F3E;gradientColor=none;fillColor=#ED7100;strokeColor=none;dashed=0;verticalLabelPosition=bottom;verticalAlign=top;align=center;html=1;fontSize=12;fontStyle=0;aspect=fixed;pointerEvents=1;shape=mxgraph.aws4.ecs_service;" vertex="1" parent="MUnnj8GXMwNh7peaOV70-7">
          <mxGeometry x="70.5" y="30" width="39" height="48" as="geometry" />
        </mxCell>
        <mxCell id="MUnnj8GXMwNh7peaOV70-14" value="Loadbalancer" style="sketch=0;points=[[0,0,0],[0.25,0,0],[0.5,0,0],[0.75,0,0],[1,0,0],[0,1,0],[0.25,1,0],[0.5,1,0],[0.75,1,0],[1,1,0],[0,0.25,0],[0,0.5,0],[0,0.75,0],[1,0.25,0],[1,0.5,0],[1,0.75,0]];outlineConnect=0;fontColor=#232F3E;fillColor=#8C4FFF;strokeColor=#ffffff;dashed=0;verticalLabelPosition=bottom;verticalAlign=top;align=center;html=1;fontSize=12;fontStyle=0;aspect=fixed;shape=mxgraph.aws4.resourceIcon;resIcon=mxgraph.aws4.elastic_load_balancing;" vertex="1" parent="MUnnj8GXMwNh7peaOV70-4">
          <mxGeometry x="85" y="40" width="50" height="50" as="geometry" />
        </mxCell>
        <mxCell id="MUnnj8GXMwNh7peaOV70-31" value="" style="edgeStyle=orthogonalEdgeStyle;html=1;endArrow=open;elbow=vertical;startArrow=none;endFill=0;strokeColor=#545B64;rounded=0;exitX=0.5;exitY=1;exitDx=0;exitDy=0;exitPerimeter=0;" edge="1" parent="MUnnj8GXMwNh7peaOV70-4" source="MUnnj8GXMwNh7peaOV70-14" target="MUnnj8GXMwNh7peaOV70-12">
          <mxGeometry width="100" relative="1" as="geometry">
            <mxPoint x="801" y="110" as="sourcePoint" />
            <mxPoint x="680" y="211" as="targetPoint" />
          </mxGeometry>
        </mxCell>
        <mxCell id="MUnnj8GXMwNh7peaOV70-5" value="Region B" style="points=[[0,0],[0.25,0],[0.5,0],[0.75,0],[1,0],[1,0.25],[1,0.5],[1,0.75],[1,1],[0.75,1],[0.5,1],[0.25,1],[0,1],[0,0.75],[0,0.5],[0,0.25]];outlineConnect=0;gradientColor=none;html=1;whiteSpace=wrap;fontSize=12;fontStyle=0;container=1;pointerEvents=0;collapsible=0;recursiveResize=0;shape=mxgraph.aws4.group;grIcon=mxgraph.aws4.group_region;strokeColor=#00A4A6;fillColor=none;verticalAlign=top;align=left;spacingLeft=30;fontColor=#147EBA;dashed=1;" vertex="1" parent="MUnnj8GXMwNh7peaOV70-3">
          <mxGeometry x="360" y="120" width="220" height="400" as="geometry" />
        </mxCell>
        <mxCell id="MUnnj8GXMwNh7peaOV70-23" value="ECS Cluster" style="points=[[0,0],[0.25,0],[0.5,0],[0.75,0],[1,0],[1,0.25],[1,0.5],[1,0.75],[1,1],[0.75,1],[0.5,1],[0.25,1],[0,1],[0,0.75],[0,0.5],[0,0.25]];outlineConnect=0;gradientColor=none;html=1;whiteSpace=wrap;fontSize=12;fontStyle=0;container=1;pointerEvents=0;collapsible=0;recursiveResize=0;shape=mxgraph.aws4.group;grIcon=mxgraph.aws4.group_ec2_instance_contents;strokeColor=#D86613;fillColor=none;verticalAlign=top;align=left;spacingLeft=30;fontColor=#D86613;dashed=0;" vertex="1" parent="MUnnj8GXMwNh7peaOV70-5">
          <mxGeometry x="20" y="130" width="180" height="100" as="geometry" />
        </mxCell>
        <mxCell id="MUnnj8GXMwNh7peaOV70-24" value="Services" style="sketch=0;outlineConnect=0;fontColor=#232F3E;gradientColor=none;fillColor=#ED7100;strokeColor=none;dashed=0;verticalLabelPosition=bottom;verticalAlign=top;align=center;html=1;fontSize=12;fontStyle=0;aspect=fixed;pointerEvents=1;shape=mxgraph.aws4.ecs_service;" vertex="1" parent="MUnnj8GXMwNh7peaOV70-23">
          <mxGeometry x="70.5" y="30" width="39" height="48" as="geometry" />
        </mxCell>
        <mxCell id="MUnnj8GXMwNh7peaOV70-26" value="Loadbalancer" style="sketch=0;points=[[0,0,0],[0.25,0,0],[0.5,0,0],[0.75,0,0],[1,0,0],[0,1,0],[0.25,1,0],[0.5,1,0],[0.75,1,0],[1,1,0],[0,0.25,0],[0,0.5,0],[0,0.75,0],[1,0.25,0],[1,0.5,0],[1,0.75,0]];outlineConnect=0;fontColor=#232F3E;fillColor=#8C4FFF;strokeColor=#ffffff;dashed=0;verticalLabelPosition=bottom;verticalAlign=top;align=center;html=1;fontSize=12;fontStyle=0;aspect=fixed;shape=mxgraph.aws4.resourceIcon;resIcon=mxgraph.aws4.elastic_load_balancing;" vertex="1" parent="MUnnj8GXMwNh7peaOV70-5">
          <mxGeometry x="85" y="40" width="50" height="50" as="geometry" />
        </mxCell>
        <mxCell id="MUnnj8GXMwNh7peaOV70-30" value="" style="edgeStyle=orthogonalEdgeStyle;html=1;endArrow=open;elbow=vertical;startArrow=none;endFill=0;strokeColor=#545B64;rounded=0;exitX=0.5;exitY=1;exitDx=0;exitDy=0;exitPerimeter=0;" edge="1" parent="MUnnj8GXMwNh7peaOV70-5" source="MUnnj8GXMwNh7peaOV70-26" target="MUnnj8GXMwNh7peaOV70-24">
          <mxGeometry width="100" relative="1" as="geometry">
            <mxPoint x="241" y="50" as="sourcePoint" />
            <mxPoint x="120" y="151" as="targetPoint" />
          </mxGeometry>
        </mxCell>
        <mxCell id="MUnnj8GXMwNh7peaOV70-9" value="&lt;div&gt;Global RDS&amp;nbsp;&lt;/div&gt;&lt;div&gt;Cluster&lt;/div&gt;" style="fillColor=none;strokeColor=#5A6C86;dashed=1;verticalAlign=top;fontStyle=0;fontColor=#5A6C86;whiteSpace=wrap;html=1;" vertex="1" parent="MUnnj8GXMwNh7peaOV70-3">
          <mxGeometry x="20" y="360" width="580" height="140" as="geometry" />
        </mxCell>
        <mxCell id="MUnnj8GXMwNh7peaOV70-15" value="RDS Cluster" style="points=[[0,0],[0.25,0],[0.5,0],[0.75,0],[1,0],[1,0.25],[1,0.5],[1,0.75],[1,1],[0.75,1],[0.5,1],[0.25,1],[0,1],[0,0.75],[0,0.5],[0,0.25]];outlineConnect=0;gradientColor=none;html=1;whiteSpace=wrap;fontSize=12;fontStyle=0;container=1;pointerEvents=0;collapsible=0;recursiveResize=0;shape=mxgraph.aws4.group;grIcon=mxgraph.aws4.group_vpc2;strokeColor=#8C4FFF;fillColor=none;verticalAlign=top;align=left;spacingLeft=30;fontColor=#AAB7B8;dashed=0;" vertex="1" parent="MUnnj8GXMwNh7peaOV70-3">
          <mxGeometry x="60" y="380" width="180" height="110" as="geometry" />
        </mxCell>
        <mxCell id="MUnnj8GXMwNh7peaOV70-16" value="" style="sketch=0;points=[[0,0,0],[0.25,0,0],[0.5,0,0],[0.75,0,0],[1,0,0],[0,1,0],[0.25,1,0],[0.5,1,0],[0.75,1,0],[1,1,0],[0,0.25,0],[0,0.5,0],[0,0.75,0],[1,0.25,0],[1,0.5,0],[1,0.75,0]];outlineConnect=0;fontColor=#232F3E;fillColor=#C925D1;strokeColor=#ffffff;dashed=0;verticalLabelPosition=bottom;verticalAlign=top;align=center;html=1;fontSize=12;fontStyle=0;aspect=fixed;shape=mxgraph.aws4.resourceIcon;resIcon=mxgraph.aws4.database;" vertex="1" parent="MUnnj8GXMwNh7peaOV70-15">
          <mxGeometry width="27" height="27" as="geometry" />
        </mxCell>
        <mxCell id="MUnnj8GXMwNh7peaOV70-17" value="Writer" style="sketch=0;outlineConnect=0;fontColor=#232F3E;gradientColor=none;fillColor=#C925D1;strokeColor=none;dashed=0;verticalLabelPosition=bottom;verticalAlign=top;align=center;html=1;fontSize=12;fontStyle=0;aspect=fixed;pointerEvents=1;shape=mxgraph.aws4.rds_postgresql_instance;" vertex="1" parent="MUnnj8GXMwNh7peaOV70-15">
          <mxGeometry x="27" y="40" width="40" height="40" as="geometry" />
        </mxCell>
        <mxCell id="MUnnj8GXMwNh7peaOV70-18" value="Reader" style="sketch=0;outlineConnect=0;fontColor=#232F3E;gradientColor=none;fillColor=#C925D1;strokeColor=none;dashed=0;verticalLabelPosition=bottom;verticalAlign=top;align=center;html=1;fontSize=12;fontStyle=0;aspect=fixed;pointerEvents=1;shape=mxgraph.aws4.rds_postgresql_instance;" vertex="1" parent="MUnnj8GXMwNh7peaOV70-15">
          <mxGeometry x="110" y="40" width="40" height="40" as="geometry" />
        </mxCell>
        <mxCell id="MUnnj8GXMwNh7peaOV70-19" value="RDS Cluster" style="points=[[0,0],[0.25,0],[0.5,0],[0.75,0],[1,0],[1,0.25],[1,0.5],[1,0.75],[1,1],[0.75,1],[0.5,1],[0.25,1],[0,1],[0,0.75],[0,0.5],[0,0.25]];outlineConnect=0;gradientColor=none;html=1;whiteSpace=wrap;fontSize=12;fontStyle=0;container=1;pointerEvents=0;collapsible=0;recursiveResize=0;shape=mxgraph.aws4.group;grIcon=mxgraph.aws4.group_vpc2;strokeColor=#8C4FFF;fillColor=none;verticalAlign=top;align=left;spacingLeft=30;fontColor=#AAB7B8;dashed=0;" vertex="1" parent="MUnnj8GXMwNh7peaOV70-3">
          <mxGeometry x="380" y="380" width="180" height="110" as="geometry" />
        </mxCell>
        <mxCell id="MUnnj8GXMwNh7peaOV70-20" value="" style="sketch=0;points=[[0,0,0],[0.25,0,0],[0.5,0,0],[0.75,0,0],[1,0,0],[0,1,0],[0.25,1,0],[0.5,1,0],[0.75,1,0],[1,1,0],[0,0.25,0],[0,0.5,0],[0,0.75,0],[1,0.25,0],[1,0.5,0],[1,0.75,0]];outlineConnect=0;fontColor=#232F3E;fillColor=#C925D1;strokeColor=#ffffff;dashed=0;verticalLabelPosition=bottom;verticalAlign=top;align=center;html=1;fontSize=12;fontStyle=0;aspect=fixed;shape=mxgraph.aws4.resourceIcon;resIcon=mxgraph.aws4.database;" vertex="1" parent="MUnnj8GXMwNh7peaOV70-19">
          <mxGeometry width="27" height="27" as="geometry" />
        </mxCell>
        <mxCell id="MUnnj8GXMwNh7peaOV70-21" value="Reader" style="sketch=0;outlineConnect=0;fontColor=#232F3E;gradientColor=none;fillColor=#C925D1;strokeColor=none;dashed=0;verticalLabelPosition=bottom;verticalAlign=top;align=center;html=1;fontSize=12;fontStyle=0;aspect=fixed;pointerEvents=1;shape=mxgraph.aws4.rds_postgresql_instance;" vertex="1" parent="MUnnj8GXMwNh7peaOV70-19">
          <mxGeometry x="27" y="40" width="40" height="40" as="geometry" />
        </mxCell>
        <mxCell id="MUnnj8GXMwNh7peaOV70-22" value="Reader" style="sketch=0;outlineConnect=0;fontColor=#232F3E;gradientColor=none;fillColor=#C925D1;strokeColor=none;dashed=0;verticalLabelPosition=bottom;verticalAlign=top;align=center;html=1;fontSize=12;fontStyle=0;aspect=fixed;pointerEvents=1;shape=mxgraph.aws4.rds_postgresql_instance;" vertex="1" parent="MUnnj8GXMwNh7peaOV70-19">
          <mxGeometry x="110" y="40" width="40" height="40" as="geometry" />
        </mxCell>
        <mxCell id="MUnnj8GXMwNh7peaOV70-25" value="CloudFront" style="sketch=0;points=[[0,0,0],[0.25,0,0],[0.5,0,0],[0.75,0,0],[1,0,0],[0,1,0],[0.25,1,0],[0.5,1,0],[0.75,1,0],[1,1,0],[0,0.25,0],[0,0.5,0],[0,0.75,0],[1,0.25,0],[1,0.5,0],[1,0.75,0]];outlineConnect=0;fontColor=#232F3E;fillColor=#8C4FFF;strokeColor=#ffffff;dashed=0;verticalLabelPosition=bottom;verticalAlign=top;align=center;html=1;fontSize=12;fontStyle=0;aspect=fixed;shape=mxgraph.aws4.resourceIcon;resIcon=mxgraph.aws4.cloudfront;" vertex="1" parent="MUnnj8GXMwNh7peaOV70-3">
          <mxGeometry x="271" y="20" width="78" height="78" as="geometry" />
        </mxCell>
        <mxCell id="MUnnj8GXMwNh7peaOV70-27" value="&lt;div&gt;IAM Task &amp;amp;&lt;/div&gt;&lt;div&gt;Execution Roles&lt;/div&gt;" style="sketch=0;points=[[0,0,0],[0.25,0,0],[0.5,0,0],[0.75,0,0],[1,0,0],[0,1,0],[0.25,1,0],[0.5,1,0],[0.75,1,0],[1,1,0],[0,0.25,0],[0,0.5,0],[0,0.75,0],[1,0.25,0],[1,0.5,0],[1,0.75,0]];outlineConnect=0;fontColor=#232F3E;fillColor=#DD344C;strokeColor=#ffffff;dashed=0;verticalLabelPosition=bottom;verticalAlign=top;align=center;html=1;fontSize=12;fontStyle=0;aspect=fixed;shape=mxgraph.aws4.resourceIcon;resIcon=mxgraph.aws4.identity_and_access_management;" vertex="1" parent="MUnnj8GXMwNh7peaOV70-3">
          <mxGeometry x="281" y="250" width="58" height="58" as="geometry" />
        </mxCell>
        <mxCell id="MUnnj8GXMwNh7peaOV70-28" value="" style="edgeStyle=orthogonalEdgeStyle;html=1;endArrow=open;elbow=vertical;startArrow=none;endFill=0;strokeColor=#545B64;rounded=0;exitX=0;exitY=0.5;exitDx=0;exitDy=0;exitPerimeter=0;entryX=0.5;entryY=0;entryDx=0;entryDy=0;entryPerimeter=0;" edge="1" parent="MUnnj8GXMwNh7peaOV70-3" source="MUnnj8GXMwNh7peaOV70-25" target="MUnnj8GXMwNh7peaOV70-14">
          <mxGeometry width="100" relative="1" as="geometry">
            <mxPoint x="-130" y="100" as="sourcePoint" />
            <mxPoint x="-30" y="100" as="targetPoint" />
          </mxGeometry>
        </mxCell>
        <mxCell id="MUnnj8GXMwNh7peaOV70-29" value="" style="edgeStyle=orthogonalEdgeStyle;html=1;endArrow=open;elbow=vertical;startArrow=none;endFill=0;strokeColor=#545B64;rounded=0;exitX=1;exitY=0.5;exitDx=0;exitDy=0;exitPerimeter=0;entryX=0.5;entryY=0;entryDx=0;entryDy=0;entryPerimeter=0;" edge="1" parent="MUnnj8GXMwNh7peaOV70-3" source="MUnnj8GXMwNh7peaOV70-25" target="MUnnj8GXMwNh7peaOV70-26">
          <mxGeometry width="100" relative="1" as="geometry">
            <mxPoint x="251" y="150" as="sourcePoint" />
            <mxPoint x="130" y="251" as="targetPoint" />
          </mxGeometry>
        </mxCell>
        <mxCell id="MUnnj8GXMwNh7peaOV70-32" value="" style="edgeStyle=orthogonalEdgeStyle;html=1;endArrow=open;elbow=vertical;startArrow=none;endFill=0;strokeColor=#545B64;rounded=0;entryX=0.5;entryY=0;entryDx=0;entryDy=0;" edge="1" parent="MUnnj8GXMwNh7peaOV70-3" source="MUnnj8GXMwNh7peaOV70-24" target="MUnnj8GXMwNh7peaOV70-19">
          <mxGeometry width="100" relative="1" as="geometry">
            <mxPoint x="561" y="300" as="sourcePoint" />
            <mxPoint x="440" y="401" as="targetPoint" />
          </mxGeometry>
        </mxCell>
        <mxCell id="MUnnj8GXMwNh7peaOV70-33" value="" style="edgeStyle=orthogonalEdgeStyle;html=1;endArrow=open;elbow=vertical;startArrow=none;endFill=0;strokeColor=#545B64;rounded=0;entryX=0.5;entryY=0;entryDx=0;entryDy=0;" edge="1" parent="MUnnj8GXMwNh7peaOV70-3" source="MUnnj8GXMwNh7peaOV70-12" target="MUnnj8GXMwNh7peaOV70-15">
          <mxGeometry width="100" relative="1" as="geometry">
            <mxPoint x="791" y="320" as="sourcePoint" />
            <mxPoint x="670" y="421" as="targetPoint" />
          </mxGeometry>
        </mxCell>
        <mxCell id="MUnnj8GXMwNh7peaOV70-34" value="" style="edgeStyle=orthogonalEdgeStyle;html=1;endArrow=open;elbow=vertical;startArrow=none;endFill=0;strokeColor=#545B64;rounded=0;" edge="1" parent="MUnnj8GXMwNh7peaOV70-3" source="MUnnj8GXMwNh7peaOV70-24" target="MUnnj8GXMwNh7peaOV70-17">
          <mxGeometry width="100" relative="1" as="geometry">
            <mxPoint x="861" y="380" as="sourcePoint" />
            <mxPoint x="740" y="481" as="targetPoint" />
            <Array as="points">
              <mxPoint x="370" y="304" />
              <mxPoint x="370" y="400" />
              <mxPoint x="107" y="400" />
            </Array>
          </mxGeometry>
        </mxCell>
        <mxCell id="MUnnj8GXMwNh7peaOV70-41" value="ECR" style="sketch=0;points=[[0,0,0],[0.25,0,0],[0.5,0,0],[0.75,0,0],[1,0,0],[0,1,0],[0.25,1,0],[0.5,1,0],[0.75,1,0],[1,1,0],[0,0.25,0],[0,0.5,0],[0,0.75,0],[1,0.25,0],[1,0.5,0],[1,0.75,0]];outlineConnect=0;fontColor=#232F3E;fillColor=#ED7100;strokeColor=#ffffff;dashed=0;verticalLabelPosition=bottom;verticalAlign=top;align=center;html=1;fontSize=12;fontStyle=0;aspect=fixed;shape=mxgraph.aws4.resourceIcon;resIcon=mxgraph.aws4.ecr;" vertex="1" parent="MUnnj8GXMwNh7peaOV70-3">
          <mxGeometry x="281" y="160" width="58" height="58" as="geometry" />
        </mxCell>
        <mxCell id="MUnnj8GXMwNh7peaOV70-35" value="Users" style="sketch=0;outlineConnect=0;fontColor=#232F3E;gradientColor=none;fillColor=#232F3D;strokeColor=none;dashed=0;verticalLabelPosition=bottom;verticalAlign=top;align=center;html=1;fontSize=12;fontStyle=0;aspect=fixed;pointerEvents=1;shape=mxgraph.aws4.users;" vertex="1" parent="1">
          <mxGeometry x="311" y="10" width="78" height="78" as="geometry" />
        </mxCell>
        <mxCell id="MUnnj8GXMwNh7peaOV70-36" value="" style="edgeStyle=orthogonalEdgeStyle;html=1;endArrow=open;elbow=vertical;startArrow=none;endFill=0;strokeColor=#545B64;rounded=0;entryX=0.5;entryY=0;entryDx=0;entryDy=0;entryPerimeter=0;" edge="1" parent="1" source="MUnnj8GXMwNh7peaOV70-35" target="MUnnj8GXMwNh7peaOV70-25">
          <mxGeometry width="100" relative="1" as="geometry">
            <mxPoint x="50" y="20" as="sourcePoint" />
            <mxPoint x="150" y="20" as="targetPoint" />
          </mxGeometry>
        </mxCell>
      </root>
    </mxGraphModel>
  </diagram>
</mxfile>
